<?xml version="1.0"?>

<!-- Generator: Adobe Illustrator 22.0.1, SVG Export Plug-In . SVG Version: 6.00 Build 0) -->
<svg version="1.1" xmlns="http://www.w3.org/2000/svg" xmlns:xlink="http://www.w3.org/1999/xlink" x="0px" y="0px" viewBox="0 0 195.5 186.6" style="enable-background:new 0 0 195.5 186.6;" xml:space="preserve" width="195.5" height="186.6">
<style type="text/css"> .st0{fill:#BE1622;} .st1{fill:#EAC6B9;} .st2{opacity:0.2;fill:#90796B;enable-background:new ;} .st3{opacity:0.3;} .st4{fill:#90796B;} .st5{opacity:0.94;fill:#432918;enable-background:new ;} .st6{opacity:0.2;} .st7{fill:#FFFFFF;} .st8{opacity:0.7;fill:none;stroke:#000000;stroke-width:0.5;stroke-miterlimit:10;enable-background:new ;} .st9{opacity:0.2;fill:url(#SVGID_1_);enable-background:new ;} .st10{opacity:0.2;fill:url(#SVGID_2_);enable-background:new ;} .st11{opacity:0.7;fill:#BB7D74;enable-background:new ;} .st12{opacity:0.6;}
</style>
<g id="red-back"> <circle class="st0" cx="82.7" cy="151.4" r="13.8"></circle> <circle class="st0" cx="76.1" cy="148.1" r="13.8"></circle> <circle class="st0" cx="67.8" cy="149.2" r="13.8"></circle> <circle class="st0" cx="112.8" cy="151.4" r="13.8"></circle> <circle class="st0" cx="119.3" cy="148.1" r="13.8"></circle> <circle class="st0" cx="126.6" cy="151.8" r="13.8"></circle> <circle class="st0" cx="127.7" cy="149.2" r="13.8"></circle> <circle class="st0" cx="133.1" cy="135" r="13.8"></circle> <circle class="st0" cx="62.3" cy="135" r="13.8"></circle> <circle class="st0" cx="68.9" cy="151.8" r="13.8"></circle> <circle class="st0" cx="137.2" cy="148.1" r="13.8"></circle> <circle class="st0" cx="145.6" cy="134.4" r="13.8"></circle>
</g>
<g id="shirt"> <path d="M65.8,186.6v-5.5c0-5.8,2.8-11.1,7.5-14.4l12.3-8.6h29.5l10.6,7.2c5.9,4,9.4,10.7,9.4,17.8v3.6H65.8z"></path>
</g>
<g id="neck"> <path class="st1" d="M114.8,156.1v-34.8H85.8v35.6c0,0.1,0,0.3,0,0.4c0,6.4,6.5,11.6,14.6,11.6s14.6-5.2,14.6-11.6 C114.9,156.9,114.9,156.5,114.8,156.1z"></path> <path class="st2" d="M85.8,140.6v9.7c3.4,6,8.7,9.8,14.6,9.8s11-3.7,14.4-9.5v-10L85.8,140.6z"></path>
</g>
<g id="face"> <path class="st1" d="M121.1,55.8c-10.2-3.6-18-0.7-18-0.7h-0.5l-0.5-0.2l-0.5,0.2h-0.4c0,0-7.8-3-18,0.7 c-25.6,9.1-20.4,46.8-12.6,73.4s55.4,26.6,63.2,0S146.7,64.9,121.1,55.8z"></path> <path class="st1" d="M71.5,56.3c4.3-3.3,7.7-0.6,7.7-0.6s-5,22.3-5,44.2c0,26.4,13,46.1,12.8,46.1c-5.8,0-19.1-10.6-20.7-22.7 C62.9,99.1,60.7,64.7,71.5,56.3z"></path>
</g>
<g id="nose"> <g class="st3"> <path class="st4" d="M98.9,113.6c-1,0.2-2,0.1-3-0.3c-0.5-0.4-0.3-1.7,0.6-1.6c0.9,0.2,1.7,0.6,2.3,1.1 C99.1,113.1,99.1,113.5,98.9,113.6z"></path> <path class="st4" d="M101.1,113.6c1,0.2,2,0.1,3-0.3c0.5-0.4,0.3-1.7-0.6-1.6c-0.9,0.2-1.7,0.6-2.3,1.1 C100.9,113.1,100.9,113.5,101.1,113.6z"></path> </g>
</g>
<g id="eyes"> <circle class="st5" cx="82.7" cy="91.9" r="5.2"></circle> <g class="st6"> <circle class="st7" cx="81.4" cy="89.2" r="1.8"></circle> </g> <circle class="st5" cx="118.6" cy="91.9" r="5.2"></circle> <path class="st2" d="M73.7,95c0.2,0.2,0.4,0.3,0.6,0.4c0.2,0.1,0.4,0.3,0.7,0.4s0.6,0.3,1,0.4c0.4,0.1,0.8,0.3,1.2,0.4 c0.5,0.1,0.9,0.2,1.4,0.3c0.5,0,1,0.1,1.5,0.1c0.5,0,1,0,1.6-0.1c0.5,0,1-0.1,1.5-0.2c0.5-0.1,1-0.2,1.5-0.3 c0.5-0.1,0.9-0.2,1.4-0.4l1.2-0.4c0.8-0.3,1.3-0.6,1.8-0.7l0.7-0.3l0.1,0.2c0,0-0.2,0.2-0.5,0.6c-0.2,0.2-0.4,0.4-0.6,0.6 c-0.3,0.3-0.6,0.5-0.9,0.7c-0.4,0.2-0.7,0.5-1.2,0.7c-0.4,0.2-0.9,0.5-1.4,0.6c-0.5,0.2-1,0.4-1.6,0.5c-0.6,0.1-1.1,0.2-1.7,0.3 c-0.6,0-1.2,0-1.8,0c-0.3,0-0.6,0-0.9-0.1c-0.3,0-0.6-0.1-0.8-0.2c-0.5-0.1-1-0.3-1.5-0.5c-0.4-0.2-0.9-0.4-1.3-0.7 c-0.6-0.4-1.1-0.9-1.6-1.5c-0.1-0.2-0.2-0.3-0.3-0.5c0-0.1-0.1-0.1-0.1-0.2L73.7,95z"></path> <path class="st2" d="M73.4,89c0.7-0.5,1.4-1,2.2-1.4c0.8-0.4,1.6-0.7,2.5-0.9c0.5-0.1,1-0.3,1.5-0.3c0.5-0.1,1-0.1,1.5-0.2 s1,0,1.6,0c0.5,0,1,0.1,1.5,0.2c0.5,0.1,0.9,0.2,1.4,0.4c0.4,0.1,0.8,0.3,1.2,0.5c0.4,0.2,0.7,0.4,0.9,0.5c0.2,0.2,0.4,0.3,0.6,0.5 c0.3,0.3,0.5,0.5,0.5,0.5l-0.1,0.1l-0.6-0.3c-0.2-0.1-0.5-0.2-0.7-0.3l-0.9-0.3c-0.4-0.1-0.8-0.2-1.2-0.3s-0.9-0.1-1.3-0.2 c-1-0.1-1.9-0.1-2.9,0c-1.8,0.1-3.6,0.5-5.3,1c-0.8,0.2-1.6,0.5-2.3,0.8L73.4,89z"></path> <path class="st2" d="M111.5,95c0.2,0.2,0.4,0.3,0.6,0.4c0.2,0.1,0.4,0.3,0.7,0.4s0.6,0.3,1,0.4c0.4,0.1,0.8,0.3,1.2,0.4 c0.5,0.1,0.9,0.2,1.4,0.3c0.5,0,1,0.1,1.5,0.1c0.5,0,1,0,1.6-0.1c0.5,0,1-0.1,1.5-0.2c0.5-0.1,1-0.2,1.5-0.3 c0.5-0.1,0.9-0.2,1.4-0.4l1.2-0.4c0.8-0.3,1.3-0.6,1.8-0.7l0.7-0.3l0.1,0.2c0,0-0.2,0.2-0.5,0.6c-0.2,0.2-0.4,0.4-0.6,0.6 c-0.3,0.3-0.6,0.5-0.9,0.7c-0.4,0.2-0.7,0.5-1.2,0.7c-0.4,0.2-0.9,0.5-1.4,0.6c-0.5,0.2-1,0.4-1.6,0.5c-0.6,0.1-1.1,0.2-1.7,0.3 c-0.6,0-1.2,0-1.8,0c-0.3,0-0.6,0-0.9-0.1c-0.3,0-0.6-0.1-0.8-0.2c-0.5-0.1-1-0.3-1.5-0.5c-0.4-0.2-0.9-0.4-1.3-0.7 c-0.6-0.4-1.1-0.9-1.6-1.5c-0.1-0.2-0.2-0.3-0.3-0.5c0-0.1-0.1-0.1-0.1-0.2L111.5,95z"></path> <path class="st2" d="M111.3,89c0.7-0.5,1.4-1,2.2-1.4c0.8-0.4,1.6-0.7,2.5-0.9c0.5-0.1,1-0.3,1.5-0.3c0.5-0.1,1-0.1,1.5-0.2 s1,0,1.6,0c0.5,0,1,0.1,1.5,0.2c0.5,0.1,0.9,0.2,1.4,0.4c0.4,0.1,0.8,0.3,1.2,0.5c0.4,0.2,0.7,0.4,0.9,0.5c0.2,0.2,0.4,0.3,0.6,0.5 c0.3,0.3,0.5,0.5,0.5,0.5l-0.1,0.1l-0.6-0.3c-0.2-0.1-0.5-0.2-0.7-0.3l-0.9-0.3c-0.4-0.1-0.8-0.2-1.2-0.3s-0.9-0.1-1.3-0.2 c-1-0.1-1.9-0.1-2.9,0c-1.8,0.1-3.6,0.5-5.3,1c-0.8,0.2-1.6,0.5-2.3,0.8L111.3,89z"></path> <g class="st6"> <circle class="st7" cx="117.3" cy="89.2" r="1.8"></circle> </g> <path class="st8" d="M73.7,95c0.2,0.2,0.4,0.3,0.6,0.4c0.2,0.1,0.4,0.3,0.7,0.4s0.6,0.3,1,0.4c0.4,0.1,0.8,0.3,1.2,0.4 c0.5,0.1,0.9,0.2,1.4,0.3c0.5,0,1,0.1,1.5,0.1c0.5,0,1,0,1.6-0.1c0.5,0,1-0.1,1.5-0.2c0.5-0.1,1-0.2,1.5-0.3 c0.5-0.1,0.9-0.2,1.4-0.4l1.2-0.4c0.8-0.3,1.3-0.6,1.8-0.7l0.7-0.3"></path> <path class="st8" d="M111.5,95c0.2,0.2,0.4,0.3,0.6,0.4c0.2,0.1,0.4,0.3,0.7,0.4s0.6,0.3,1,0.4c0.4,0.1,0.8,0.3,1.2,0.4 c0.5,0.1,0.9,0.2,1.4,0.3c0.5,0,1,0.1,1.5,0.1c0.5,0,1,0,1.6-0.1c0.5,0,1-0.1,1.5-0.2c0.5-0.1,1-0.2,1.5-0.3 c0.5-0.1,0.9-0.2,1.4-0.4l1.2-0.4c0.8-0.3,1.3-0.6,1.8-0.7l0.7-0.3"></path>
</g>
<g id="eye-brown"> <path class="st5" d="M83.4,83.7c-0.6-0.1-1.3-0.2-1.9-0.3l-1-0.1c-0.3,0-0.7,0-1,0.1c-0.7,0-1.3,0.1-2,0.3 c-0.6,0.2-1.3,0.3-1.9,0.5s-1.2,0.4-1.8,0.7s-1.1,0.5-1.6,0.7c-0.9,0.5-1.8,0.9-2.3,1.2s-0.9,0.5-0.9,0.5c0.7-1.1,1.5-2,2.5-2.8 c0.5-0.4,1-0.8,1.5-1.1c0.6-0.4,1.2-0.7,1.8-1c0.7-0.3,1.4-0.6,2.1-0.8c0.8-0.2,1.5-0.3,2.3-0.4c0.4,0,0.8,0,1.2,0l1.2,0.1 c1.4,0.2,2.9,0.6,4.1,1.3c0.6,0.3,1.1,0.6,1.6,1c0.4,0.3,0.8,0.6,1.2,1c0.3,0.3,0.6,0.6,0.8,0.9c0.4,0.5,0.6,0.8,0.6,0.8 s-0.4-0.2-0.9-0.5c-0.3-0.1-0.6-0.3-1-0.5c-0.4-0.2-0.9-0.4-1.3-0.6c-0.5-0.2-1-0.4-1.6-0.6"></path> <path class="st5" d="M123,83.7c-0.6-0.1-1.3-0.2-1.9-0.3l-1-0.1c-0.3,0-0.7,0-1,0.1c-0.7,0-1.3,0.1-2,0.3c-0.6,0.2-1.3,0.3-1.9,0.5 s-1.2,0.4-1.8,0.7s-1.1,0.5-1.6,0.7c-0.9,0.5-1.8,0.9-2.3,1.2s-0.9,0.5-0.9,0.5c0.7-1.1,1.5-2,2.5-2.8c0.5-0.4,1-0.8,1.5-1.1 c0.6-0.4,1.2-0.7,1.8-1c0.7-0.3,1.4-0.6,2.1-0.8c0.8-0.2,1.5-0.3,2.3-0.4c0.4,0,0.8,0,1.2,0l1.2,0.1c1.4,0.2,2.9,0.6,4.1,1.3 c0.6,0.3,1.1,0.6,1.6,1c0.4,0.3,0.8,0.6,1.2,1c0.3,0.3,0.6,0.6,0.8,0.9c0.4,0.5,0.6,0.8,0.6,0.8s-0.4-0.2-0.9-0.5 c-0.3-0.1-0.6-0.3-1-0.5c-0.4-0.2-0.9-0.4-1.3-0.6c-0.5-0.2-1-0.4-1.6-0.6"></path>
</g>
<g id="shine"> <radialGradient id="SVGID_1_" cx="319.0874" cy="-149.4426" r="11.78" gradientTransform="matrix(0.92 0 0 -0.92 -218.9 -32.27)" gradientUnits="userSpaceOnUse"> <stop offset="0" style="stop-color:#E30613"></stop> <stop offset="0.12" style="stop-color:#E4262F"></stop> <stop offset="0.34" style="stop-color:#E65F60"></stop> <stop offset="0.55" style="stop-color:#E88B86"></stop> <stop offset="0.74" style="stop-color:#E9ABA2"></stop> <stop offset="0.89" style="stop-color:#EABFB3"></stop> <stop offset="1" style="stop-color:#EAC6B9"></stop> </radialGradient> <circle class="st9" cx="75.4" cy="106.1" r="10.9"></circle> <radialGradient id="SVGID_2_" cx="375.696" cy="-149.4426" r="11.78" gradientTransform="matrix(0.92 0 0 -0.92 -218.9 -32.27)" gradientUnits="userSpaceOnUse"> <stop offset="0" style="stop-color:#E30613"></stop> <stop offset="0.12" style="stop-color:#E4262F"></stop> <stop offset="0.34" style="stop-color:#E65F60"></stop> <stop offset="0.55" style="stop-color:#E88B86"></stop> <stop offset="0.74" style="stop-color:#E9ABA2"></stop> <stop offset="0.89" style="stop-color:#EABFB3"></stop> <stop offset="1" style="stop-color:#EAC6B9"></stop> </radialGradient> <circle class="st10" cx="127.5" cy="106.1" r="10.9"></circle>
</g>
<g id="lips"> <path class="st11" d="M110.3,126.1c-0.1-0.1-0.3-0.1-0.4,0c0,0,0,0,0,0.1c-0.2,0.3-0.5,0.5-0.8,0.7c-1.5-0.6-3-1.4-4.3-2.4 c-1-0.7-2.3-0.7-3.2,0c-0.3,0.3-0.7,0.4-1.1,0.4l0,0c-0.4,0-0.8-0.1-1.1-0.4c-1-0.7-2.3-0.7-3.2,0c-1.3,1-2.8,1.8-4.3,2.4 c-0.3-0.2-0.6-0.4-0.8-0.7c-0.1-0.1-0.2-0.2-0.3-0.1c0,0,0,0-0.1,0c-0.1,0.1-0.2,0.3-0.1,0.5c0.4,0.7,1.1,1.1,1.9,1.2h0.1 c0.9-0.1,1.9-0.2,2.8-0.4c1.6-0.4,3.3-0.5,4.9-0.4h0.1c1.7-0.1,3.3,0,4.9,0.4c0.9,0.2,1.9,0.3,2.8,0.4h0.1c0.8,0,1.5-0.5,1.9-1.2 C110.5,126.4,110.4,126.2,110.3,126.1z"></path> <path class="st11" d="M106.4,128.8c-0.9,0.4-1.7,1-2.3,1.3c-1.2,0.6-2.5,0.8-3.8,0.8c-1.3,0-2.6-0.3-3.8-0.8 c-0.6-0.4-1.4-0.9-2.3-1.3c-1.1,0.6-1.8,1.4-1.8,2.3c0,2,3.6,5,7.9,5s7.9-3,7.9-5C108.2,130.2,107.5,129.3,106.4,128.8z"></path>
</g>
<g id="kiss"> <g class="st12"> <path class="st0" d="M87.1,150.2c0.1-0.1,0.1-0.1,0.2-0.1c0.1,0,0.2,0,0.3,0c0.2,0,0.4,0,0.6-0.1c0.1-0.1,0.3-0.1,0.4,0 c0.2,0.1,0.3,0.1,0.5,0s0.2,0,0.3-0.1c0.2,0,0.4,0,0.6-0.1c0.2,0,0.2,0,0.2,0.1s0,0.2,0.1,0.3h0.1c0-0.1,0-0.2,0-0.3 c0-0.1,0-0.2,0.2-0.2s0.5-0.1,0.8,0c0,0,0.1,0,0.1,0l0.1,0.2c0.1-0.3,0.5-0.3,0.8,0v0l0.2,0.1c0,0,0.1,0,0.1,0 c0.3,0,0.4,0.1,0.4,0.4v0.1l0.2-0.1l0.2,0.5c0.1-0.1,0.3-0.2,0.5-0.2c0.2,0,0.4,0.1,0.5,0.1l-0.2,0.2l0,0l0.2-0.1 c0.1-0.1,0.2-0.1,0.2,0.1c0,0,0.1,0.1,0.1,0.1l0.1,0.1c0.3,0.2,0.3,0.3,0,0.5l-0.1,0.1c0.2,0,0.3-0.3,0.5-0.1s0.3,0.2,0.2,0.4 c0.1,0.1,0.2,0.2,0.3,0.3c0.2,0.3,0.4,0.6,0.6,0.9c0.1,0.2,0.2,0.3,0.3,0.5c0.1,0.2,0.1,0.3,0.2,0.5c0.1,0.2,0.2,0.5,0.3,0.7 c0,0.1,0,0.2,0,0.3l-0.3-0.1c0,0-0.1,0-0.1-0.1c-0.1-0.3-0.4-0.3-0.6-0.5l-0.2-0.1l0.1-0.1c-0.2,0-0.4,0.1-0.6,0s-0.4-0.1-0.3-0.4 c-0.2,0.1-0.5,0-0.6-0.3c-0.1-0.3,0.2-0.3,0.4-0.5c-0.1,0-0.2,0.1-0.3,0.2c-0.2,0.2-0.5,0.2-0.8,0l0.2-0.5 c-0.2,0.2-0.4,0.6-0.9,0.3l0.3-0.6l0,0l-0.2,0.3c0,0.1-0.1,0.2-0.1,0.2c-0.1,0-0.1,0.1-0.2,0.1c0-0.1-0.1-0.1-0.1-0.2 c0,0,0-0.1,0-0.1c-0.1,0.1-0.2,0.2-0.3,0.2c-0.1,0-0.1,0-0.2,0c0-0.1,0-0.1,0-0.2c0.1-0.2,0.1-0.3,0.2-0.5s0-0.1,0.1-0.2l0,0 c0,0.1-0.1,0.1-0.1,0.2l-0.3,0.5c-0.1,0.2-0.2,0.2-0.3,0c-0.1-0.1-0.2-0.2-0.3-0.4c-0.1-0.1-0.1-0.2-0.1-0.3 c0-0.1,0.1-0.2,0.1-0.4l-0.3,0.3l-0.1-0.3l0,0l-0.3-0.2c-0.1-0.1-0.2-0.1-0.4-0.2c-0.3-0.1-0.3-0.1-0.3-0.3c0-0.1,0-0.1,0-0.2 c0,0.1-0.1,0.2-0.1,0.3s-0.1,0.2-0.2,0.1c-0.1,0-0.2-0.1-0.2-0.2c0,0,0,0,0,0c0-0.1,0-0.2,0-0.2c-0.4,0.5-0.4,0.5-0.5,0.2 c-0.2,0.1-0.2,0-0.3-0.2s0-0.2-0.1-0.3l-0.1,0.2c0,0,0,0.1-0.1,0.1c-0.3,0-0.4-0.1-0.5-0.3c-0.1,0-0.2-0.1-0.3-0.1 c-0.1,0-0.3,0-0.4-0.1C87.2,150.5,87.1,150.4,87.1,150.2L87.1,150.2z"></path> <path class="st0" d="M93.5,156.4v-0.3c-0.2,0.4-0.6,0.4-0.9,0.5v-0.2c-0.1,0.1-0.2,0.2-0.3,0.3c-0.2,0.1-0.2,0.1-0.3-0.1l-0.3,0.1 c-0.2,0-0.2,0-0.2-0.2s0.1-0.2,0.1-0.3c-0.2,0.2-0.2,0.5-0.5,0.4c-0.1,0-0.3-0.1-0.3-0.3c-0.5,0-0.6-0.1-0.5-0.5 c-0.2,0.2-0.3,0.3-0.5,0.2s0-0.3,0-0.4c0,0-0.1,0.1-0.1,0.1c-0.1,0-0.2,0.1-0.2,0c-0.1-0.1-0.1-0.2-0.1-0.3c0-0.1,0.1-0.2,0.1-0.3 l0,0l-0.1,0.2c-0.1,0.2-0.2,0.2-0.3,0c-0.2-0.3-0.6-0.5-0.6-1c0-0.1,0-0.1-0.1-0.2c-0.2-0.1-0.2-0.4-0.1-0.6 c-0.2,0.1-0.2,0-0.2-0.2c0-0.1,0-0.3-0.1-0.4c-0.1,0-0.1-0.1-0.1-0.2s-0.1-0.4-0.2-0.6c0-0.1,0-0.2,0-0.2c-0.2-0.4-0.4-0.7-0.5-1 v-0.1c0,0,0.2,0,0.2,0s0.3,0.3,0.4,0.5c0,0,0.1,0.1,0.1,0.1c0.3,0.1,0.3,0.2,0.2,0.5c0,0,0,0.1,0,0.1c0.3-0.3,0.5-0.1,0.8,0 s0.3,0.1,0.5,0.1v0.1l-0.2,0.1h0.1c0.2,0,0.3,0,0.5,0c0.1,0,0.1,0.1,0.2,0.2c0.2,0,0.4,0,0.5,0.2c0.1,0.1,0.2,0.1,0.4,0.2 s0.2,0.2,0,0.3l-0.3,0.3l0.1,0.1c0.1-0.1,0.1-0.1,0.2-0.1c0.1-0.1,0.2-0.1,0.4-0.1c0.2,0,0.2,0.1,0.2,0.3c0.1,0,0.2,0,0.3,0 c0.2,0,0.2,0.1,0.2,0.3s-0.1,0.2-0.1,0.4c0,0.1,0,0.1,0,0.2c0.2-0.2,0.2-0.4,0.3-0.6c0.3,0.1,0.3,0.1,0.3,0.5 c0.1-0.1,0-0.4,0.2-0.3c0.1,0,0.3,0.1,0.4,0.2l0,0l0.6,0.1l0,0c0.1,0,0.2,0,0.2,0.1c0.1,0,0.1,0.1,0.1,0.2l0,0l0.1-0.3 c0.1,0.1,0.3,0.1,0.4,0.2s0.1,0.1,0.1,0.1c0.2-0.1,0.3-0.1,0.5,0.1l0,0l0.6,0.3c0.1,0,0.2,0,0.2,0.1c0.1,0.1,0.3,0.2,0.5,0.1 c0.1,0,0.3,0,0.4,0c0.1,0,0.2,0.2,0.1,0.2c-0.3,0.1-0.5,0.2-0.8,0.3c0,0-0.1,0-0.1-0.1c-0.1,0.3-0.4,0.2-0.6,0.3 c-0.1,0-0.2,0-0.3,0.1c0,0-0.1,0-0.1,0.1l-1,0.3L93.5,156.4z M90.9,156.1L90.9,156.1l0.3-0.6l0,0L90.9,156.1z M92.7,154.4 L92.7,154.4l-0.1,0.5h0.1V154.4z"></path> <path class="st0" d="M90.9,156.1l0.3-0.6l0,0L90.9,156.1L90.9,156.1z"></path> <path class="st0" d="M92.7,154.4v0.5h-0.1L92.7,154.4L92.7,154.4z"></path> </g>
</g>
<g id="red-front"> <circle class="st0" cx="45.3" cy="112.7" r="13.8"></circle> <circle class="st0" cx="44.5" cy="91" r="13.8"></circle> <circle class="st0" cx="45.3" cy="70.2" r="13.8"></circle> <circle class="st0" cx="55.1" cy="51.3" r="13.8"></circle> <circle class="st0" cx="67.8" cy="38.7" r="13.8"></circle> <circle class="st0" cx="87" cy="32.3" r="13.8"></circle> <circle class="st0" cx="58.2" cy="148.1" r="13.8"></circle> <circle class="st0" cx="49.8" cy="134.4" r="13.8"></circle> <circle class="st0" cx="36.1" cy="125.3" r="13.8"></circle> <circle class="st0" cx="36.1" cy="109.2" r="13.8"></circle> <circle class="st0" cx="26.5" cy="95.4" r="13.8"></circle> <circle class="st0" cx="30.7" cy="77.2" r="13.8"></circle> <circle class="st0" cx="41.3" cy="88.8" r="13.8"></circle> <circle class="st0" cx="36.1" cy="69" r="13.8"></circle> <circle class="st0" cx="44.5" cy="46.1" r="13.8"></circle> <circle class="st0" cx="36.1" cy="52.5" r="13.8"></circle> <circle class="st0" cx="27.6" cy="67.1" r="13.8"></circle> <circle class="st0" cx="31.7" cy="110.8" r="13.8"></circle> <circle class="st0" cx="49.9" cy="141.5" r="13.8"></circle> <circle class="st0" cx="22.3" cy="79.5" r="13.8"></circle> <circle class="st0" cx="22.3" cy="53.3" r="13.8"></circle> <circle class="st0" cx="31.5" cy="37.5" r="13.8"></circle> <circle class="st0" cx="49.8" cy="27.6" r="13.8"></circle> <circle class="st0" cx="68.9" cy="18.5" r="13.8"></circle> <circle class="st0" cx="48.6" cy="38.7" r="13.8"></circle> <circle class="st0" cx="63.6" cy="31.2" r="13.8"></circle> <circle class="st0" cx="17.4" cy="92.4" r="13.8"></circle> <circle class="st0" cx="22.3" cy="109.9" r="13.8"></circle> <circle class="st0" cx="13.8" cy="70.6" r="13.8"></circle> <circle class="st0" cx="87" cy="24.9" r="13.8"></circle> <circle class="st0" cx="150.1" cy="112.7" r="13.8"></circle> <circle class="st0" cx="151" cy="91" r="13.8"></circle> <circle class="st0" cx="150.1" cy="70.2" r="13.8"></circle> <circle class="st0" cx="140.3" cy="51.3" r="13.8"></circle> <circle class="st0" cx="127.6" cy="38.7" r="13.8"></circle> <circle class="st0" cx="108.5" cy="32.3" r="13.8"></circle> <circle class="st0" cx="159.4" cy="125.3" r="13.8"></circle> <circle class="st0" cx="159.4" cy="109.2" r="13.8"></circle> <circle class="st0" cx="169" cy="95.4" r="13.8"></circle> <circle class="st0" cx="164.8" cy="77.2" r="13.8"></circle> <circle class="st0" cx="154.1" cy="88.8" r="13.8"></circle> <circle class="st0" cx="159.4" cy="69" r="13.8"></circle> <circle class="st0" cx="151" cy="46.1" r="13.8"></circle> <circle class="st0" cx="159.4" cy="52.5" r="13.8"></circle> <circle class="st0" cx="167.9" cy="67.1" r="13.8"></circle> <circle class="st0" cx="163.8" cy="110.8" r="13.8"></circle> <circle class="st0" cx="145.6" cy="141.6" r="13.8"></circle> <circle class="st0" cx="173.2" cy="79.5" r="13.8"></circle> <circle class="st0" cx="173.2" cy="53.3" r="13.8"></circle> <circle class="st0" cx="163.9" cy="37.5" r="13.8"></circle> <circle class="st0" cx="145.6" cy="27.6" r="13.8"></circle> <circle class="st0" cx="126.6" cy="18.5" r="13.8"></circle> <circle class="st0" cx="146.9" cy="38.7" r="13.8"></circle> <circle class="st0" cx="131.8" cy="31.2" r="13.8"></circle> <circle class="st0" cx="178.1" cy="92.4" r="13.8"></circle> <circle class="st0" cx="173.2" cy="109.9" r="13.8"></circle> <circle class="st0" cx="181.7" cy="70.6" r="13.8"></circle> <circle class="st0" cx="115.5" cy="32" r="20.8"></circle> <circle class="st0" cx="83.8" cy="45.1" r="13.8"></circle> <circle class="st0" cx="77.4" cy="52.5" r="13.8"></circle> <circle class="st0" cx="65.8" cy="55.4" r="13.8"></circle> <circle class="st0" cx="56.2" cy="76.7" r="13.8"></circle> <circle class="st0" cx="51.1" cy="95.9" r="13.8"></circle> <circle class="st0" cx="51.1" cy="105.6" r="13.8"></circle> <circle class="st0" cx="54.2" cy="116.2" r="13.8"></circle> <circle class="st0" cx="126.6" cy="52.5" r="13.8"></circle> <circle class="st0" cx="134.2" cy="55.4" r="13.8"></circle> <circle class="st0" cx="143.8" cy="76.7" r="13.8"></circle> <circle class="st0" cx="148.9" cy="95.9" r="13.8"></circle> <circle class="st0" cx="150.1" cy="106.1" r="13.8"></circle> <circle class="st0" cx="147.8" cy="116.2" r="13.8"></circle> <circle class="st0" cx="100.8" cy="48.6" r="13.8"></circle> <circle class="st0" cx="99" cy="13.8" r="13.8"></circle> <circle class="st0" cx="83.8" cy="17.4" r="13.8"></circle> <circle class="st0" cx="116.3" cy="18.5" r="13.8"></circle>
</g>
</svg>
