<?xml version="1.0"?>
<svg width="100" height="23" viewBox="0 0 139 32" version="1.1" xmlns="http://www.w3.org/2000/svg"><title>logo-static copy</title><desc>Created with Sketch.</desc><defs></defs><g id="Page-1" stroke="none" stroke-width="1" fill="none" fill-rule="evenodd"><g id="my-account" transform="translate(-120.000000, -11.000000)" fill-rule="nonzero"><g id="logo-static-copy" transform="translate(120.000000, 11.000000)"><path d="M137.126294,9.68205128 C134.881988,9.68205128 132.861284,10.7815385 132.861284,12.6769231 L132.861284,9.68205128 L128.033126,9.68205128 L128.033126,23.1630769 C128.001429,23.7587225 128.217163,24.3412694 128.630164,24.7752568 C129.043164,25.2092442 129.617443,25.4568554 130.219462,25.4605128 L132.861284,25.4605128 L132.861284,16.3528205 C132.861284,16.3528205 132.861284,14.465641 134.467909,14.465641 L136.645963,14.465641 C138.062112,14.465641 138.666667,13.7928205 138.666667,12.3897436 L138.666667,9.68205128 L137.126294,9.68205128 Z" id="Shape" fill="#F1F2F2"></path><path d="M100.207039,25.4358974 L95.9006211,25.4358974 L95.9006211,23.5815385 L95.8095238,23.5815385 C94.7103846,24.833161 93.0928227,25.5165468 91.4202899,25.4358974 C90.1434523,25.5035246 88.8947698,25.0477165 87.9674287,24.1754953 C87.0400876,23.3032741 86.5157752,22.0914718 86.5175983,20.8246154 C86.5175983,16.9189744 90.0538302,15.0810256 95.4285714,15.0810256 L95.4285714,14.8512821 C95.4285714,14.0307692 94.9979296,12.9148718 92.6708075,12.9148718 C91.198183,12.93134 89.7547874,13.3241858 88.4803313,14.0553846 L88.115942,12.8 C87.8055573,11.7245694 88.425706,10.6017824 89.5072464,10.2810256 C90.8065783,9.90551033 92.1537751,9.71759364 93.5072464,9.72307692 C98.5672878,9.72307692 100.182195,12.6769231 100.182195,16.2133333 L100.182195,25.4358974 L100.207039,25.4358974 Z M95.610766,18.0512821 C93.126294,18.0512821 91.2049689,18.6010256 91.2049689,20.4225641 C91.1757116,20.9032353 91.3610192,21.3723805 91.711795,21.7057009 C92.0625708,22.0390213 92.5434099,22.2028739 93.0269151,22.1538462 C94.1447655,22.1746414 95.1484884,21.4785209 95.5113872,20.4307692 C95.5751435,20.1619233 95.6057329,19.8864048 95.6024845,19.6102564 L95.610766,18.0512821 Z" id="Shape" fill="#F1F2F2"></path><path d="M108.140787,5.20205128 L108.140787,9.63282051 L110.012422,9.63282051 C110.899737,9.63282051 111.619048,10.3454914 111.619048,11.2246154 L111.619048,13.1774359 L108.140787,13.1774359 L108.140787,18.7733333 C108.140787,20.6358974 108.587992,21.4892308 110.05383,21.4892308 C110.53414,21.4903756 111.0136,21.4491877 111.486542,21.3661538 L111.486542,22.5476923 C111.514353,24.1063075 110.268508,25.3955926 108.695652,25.4358974 L108.356108,25.4358974 C107.013784,25.4911094 105.704854,25.0125461 104.720497,24.1066667 C103.826087,23.1876923 103.378882,21.7025641 103.378882,19.52 L103.378882,13.1692308 L101.308489,13.1692308 L101.308489,9.63282051 L103.378882,9.63282051 C103.37733,7.66550911 104.753961,5.96060531 106.691511,5.53025641 L108.140787,5.20205128 Z" id="Shape" fill="#F1F2F2"></path><path d="M83.4120083,9.79692308 L80.505176,9.79692308 L80.505176,11.0194872 C79.6770186,9.77230769 78.3354037,9.79692308 76.2236025,9.79692308 C72.4389234,9.79692308 69.2753623,12.6851282 69.2753623,17.5917949 C69.2753623,21.9979487 71.9917184,25.4194872 75.8012422,25.4194872 C77.068323,25.4194872 78.6335404,25.4194872 79.552795,24.2461538 L79.552795,24.8779487 C79.552795,27.6923077 78.0538302,28.3241026 75.7846791,28.3241026 C75.0111854,28.3191079 74.2420652,28.2086702 73.4989648,27.9958974 C72.9415794,27.8371043 72.3428107,27.9124183 71.843156,28.2041675 C71.3435014,28.4959166 70.9869422,28.9784202 70.8571429,29.5384615 L70.5590062,30.7692308 C72.2919479,31.5993432 74.1999836,32.0072469 76.1242236,31.9589744 C78.3779331,32.0898948 80.6053907,31.4240459 82.4099379,30.08 C84.1407867,28.545641 84.7453416,26.1415385 84.7453416,23.2041026 L84.8612836,10.6502564 C84.8695652,9.84615385 84.5714286,9.79692308 83.4120083,9.79692308 Z M77.0186335,21.2594872 C76.1799028,21.2542103 75.3802295,20.9076108 74.8070445,20.3009262 C74.2338595,19.6942415 73.9375541,18.8808081 73.9875776,18.0512821 L73.9875776,16.9435897 C73.9038454,15.8267141 74.4578124,14.7572915 75.4224903,14.1735185 C76.3871683,13.5897455 77.6004094,13.5897455 78.5650873,14.1735185 C79.5297653,14.7572915 80.0837323,15.8267141 80,16.9435897 L80,18.0512821 C80.049712,18.8723925 79.760075,19.6781997 79.1977119,20.2833505 C78.6353487,20.8885013 77.8486717,21.2409 77.0186335,21.2594872 L77.0186335,21.2594872 Z" id="Shape" fill="#3EFFFA"></path><path d="M119.826087,9.72307692 C118.006038,9.73793308 116.268187,10.4760404 115.002365,11.7718281 C113.736543,13.0676158 113.048713,14.8126128 113.093168,16.6153846 L113.093168,18.4779487 C113.006791,20.9184641 114.271641,23.2111264 116.391648,24.4567599 C118.511654,25.7023934 121.148801,25.7023934 123.268808,24.4567599 C125.388814,23.2111264 126.653665,20.9184641 126.567288,18.4779487 L126.567288,16.6153846 C126.61176,14.8112011 125.922804,13.0649524 124.655187,11.7689216 C123.38757,10.4728908 121.647578,9.73574424 119.826087,9.72307692 Z M122.517598,18.3384615 C122.517598,19.8134867 121.310714,21.0092308 119.821946,21.0092308 C118.333179,21.0092308 117.126294,19.8134867 117.126294,18.3384615 L117.126294,16.7548718 C117.126294,15.2798467 118.333179,14.0841026 119.821946,14.0841026 C121.310714,14.0841026 122.517598,15.2798467 122.517598,16.7548718 L122.517598,18.3384615 Z" id="Shape" fill="#F1F2F2"></path><path d="M60.4554865,16.9107692 L59.047619,12.1025641 C58.6256119,10.7592558 57.3864179,9.83183851 55.9668737,9.79692308 L52.9109731,9.79692308 L58.1283644,24.0574359 L60.4554865,16.9107692 Z" id="Shape" fill="#3EFFFA"></path><path d="M66.9730849,9.79692308 C65.8178393,9.7425486 64.7296452,10.3355306 64.1573499,11.3312821 L59.5693582,25.4358974 L61.6728778,25.4358974 C63.0227743,25.4358974 64.2236025,25.0338462 64.6956522,23.7948718 L69.9047619,9.84615385 L66.9730849,9.79692308 Z" id="Shape" fill="#3EFFFA"></path><path d="M39.9917184,23.4912821 C40.1316417,22.9215452 40.4987119,22.4323486 41.0090655,22.1354575 C41.5194191,21.8385664 42.1294525,21.7593466 42.699793,21.9158974 C43.4175563,22.1311823 44.1612819,22.2498527 44.9109731,22.2687179 C46.426501,22.2687179 47.047619,21.7517949 47.047619,20.9312821 C47.047619,20.1107692 46.5507246,19.7251282 44.679089,19.1015385 C41.3664596,17.9938462 40.0745342,16.2051282 40.1076605,14.3097436 C40.1076605,11.3476923 42.6749482,9.09128205 46.6583851,9.09128205 C48.2199211,9.06514602 49.7685015,9.37592289 51.1966874,10.0020513 L50.9068323,11.1097436 C50.6132399,12.2456271 49.46071,12.9438535 48.3064182,12.6851282 C47.8206315,12.5703379 47.3234011,12.5097899 46.8240166,12.5046154 C45.6066253,12.5046154 44.9192547,12.9969231 44.9192547,13.8092308 C44.9192547,14.6215385 45.5403727,14.9497436 47.5196687,15.6389744 C50.5755694,16.6810256 51.8592133,18.2153846 51.8923395,20.5620513 C51.8923395,23.5323077 49.5238095,25.7148718 44.9192547,25.7148718 C43.1334325,25.7556342 41.3630387,25.3789628 39.7515528,24.6153846 L39.9917184,23.4912821 Z" id="Shape" fill="#3EFFFA"></path><path d="M17.7888199,7.43384615 L14.7743271,6.79384615 C14.5878101,6.0020444 14.219383,5.26356811 13.6977226,4.63589744 L15.0062112,1.87076923 C15.093268,1.68571573 15.029734,1.46539931 14.8571429,1.35384615 L13.6149068,0.533333333 C13.4439636,0.419542147 13.2145969,0.447511318 13.0766046,0.598974359 L11.0062112,2.86358974 C10.2411363,2.63801663 9.43533695,2.58199128 8.64596273,2.69948718 L6.91511387,0.180512821 C6.80001097,0.0124931218 6.57816337,-0.0468179291 6.39337474,0.041025641 L5.04347826,0.689230769 C4.85833329,0.777647243 4.76666662,0.987233062 4.82815735,1.18153846 L5.74741201,4.1025641 C5.14382356,4.66120218 4.67652817,5.34866014 4.38095238,6.11282051 L1.30848861,6.35897436 C1.10203908,6.37505568 0.939324361,6.53977304 0.927536232,6.74461538 L0.82815735,8.20512821 C0.811468557,8.41229059 0.953766216,8.59909458 1.15942029,8.64 L4.14078675,9.30461538 C4.33347785,10.1080569 4.71355224,10.8555685 5.2505176,11.4871795 L3.94202899,14.2276923 C3.85497216,14.4127458 3.91850618,14.6330622 4.09109731,14.7446154 L5.33333333,15.5651282 C5.50427652,15.6789194 5.73364326,15.6509502 5.87163561,15.4994872 L7.93374741,13.2266667 C8.69882231,13.4522398 9.50462164,13.5082651 10.2939959,13.3907692 L12.0248447,15.9097436 C12.1406732,16.0820983 12.3679789,16.1419191 12.5548654,16.0492308 L13.9047619,15.4010256 C14.0899069,15.3126092 14.1815735,15.1030233 14.1200828,14.9087179 L13.2008282,12.0041026 C13.8054571,11.4431116 14.2728207,10.752747 14.5672878,9.98564103 L17.6397516,9.73948718 C17.8462011,9.72340586 18.0089158,9.5586885 18.0207039,9.35384615 L18.1200828,7.87692308 C18.1412308,7.66676838 17.9978893,7.47504355 17.7888199,7.43384615 Z M9.50724638,5.84205128 C10.7341922,5.86013733 11.7153563,6.85785083 11.7017111,8.07353037 C11.688066,9.28920991 10.68475,10.2650583 9.45770169,10.2561062 C8.23065334,10.247154 7.24195096,9.25677244 7.24637681,8.04102564 C7.24637681,6.82203407 8.24377145,5.83384615 9.47412008,5.83384615 L9.50724638,5.84205128 Z" id="Shape" fill="#3EFFFA"></path><path d="M34.5424431,21.3907692 L32.057971,19.4707692 C32.4379825,18.1486757 32.4379825,16.7477345 32.057971,15.425641 L34.4761905,13.4974359 C34.6795528,13.3342917 34.7323148,13.048522 34.6004141,12.8246154 L33.6397516,11.1835897 C33.5069941,10.9595818 33.228876,10.8654062 32.9855072,10.9620513 L30.136646,12.1025641 C29.1725147,11.1327303 27.9623708,10.4382894 26.6335404,10.0923077 L26.194617,7.08923077 C26.1539808,6.83471524 25.9329574,6.64701538 25.6728778,6.64615385 L23.7929607,6.64615385 C23.5297485,6.64295366 23.3040501,6.83162881 23.26294,7.08923077 L22.7991718,10.0923077 C21.4244877,10.4389307 20.1742693,11.1577048 19.1884058,12.1682051 L16.3229814,11.0523077 C16.0775791,10.9570765 15.7988342,11.0549602 15.6687371,11.2820513 L14.7246377,12.9230769 C14.5945906,13.1489232 14.6509414,13.435055 14.8571429,13.5958974 L17.300207,15.4994872 C16.9536241,16.8276321 16.9851557,18.2249393 17.3913043,19.5364103 L14.9068323,21.4810256 C14.70347,21.6441698 14.650708,21.9299395 14.7826087,22.1538462 L15.7349896,23.7948718 C15.8677471,24.0188797 16.1458652,24.1130553 16.389234,24.0164103 L19.320911,22.8512821 C20.2693017,23.7775152 21.4454727,24.4421967 22.7329193,24.7794872 L23.1884058,27.8974359 C23.2253557,28.1552089 23.4473639,28.3472364 23.7101449,28.3487179 L25.6066253,28.3487179 C25.8698374,28.3519181 26.0955358,28.163243 26.136646,27.905641 L26.6169772,24.7876923 C27.9490656,24.4514135 29.1649747,23.7654515 30.136646,22.8020513 L33.0766046,23.9425641 C33.3220069,24.0377953 33.6007517,23.9399116 33.7308489,23.7128205 L34.6749482,22.0717949 C34.8098933,21.8440683 34.7531593,21.5524774 34.5424431,21.3907692 Z M28.7453416,17.5015385 C28.7419766,19.1051928 27.763485,20.5487784 26.2664931,21.1586266 C24.7695012,21.7684748 23.0491023,21.4243697 21.9081438,20.2868926 C20.7671853,19.1494155 20.4305776,17.4427907 21.0554033,15.9634376 C21.680229,14.4840845 23.1433199,13.5236195 24.7619048,13.5302564 C26.9516003,13.5616964 28.7086977,15.3318329 28.7039337,17.5015385 L28.7453416,17.5015385 Z" id="Shape" fill="#F1F2F2"></path><ellipse id="Oval" fill="#F1F2F2" cx="24.7039337" cy="17.4851282" rx="2.12008282" ry="2.10051282"></ellipse></g></g></g></svg>