<?xml version="1.0"?>
<!-- Generated by IcoMoon.io -->
<svg version="1.1" xmlns="http://www.w3.org/2000/svg" width="32" height="32" viewBox="0 0 32 32">
<title>alien</title>
<path d="M9.263 13.281c-0.722-0.193-1.444-0.048-1.973 0.337-1.732 1.203-1.588 4.62 0.289 7.94 1.251 2.165 2.935 3.753 4.475 4.090 0.241 0.048 0.433 0.096 0.674 0.096 0.481 0 0.962-0.144 1.347-0.385v0c1.732-1.203 1.588-4.62-0.289-7.94-1.251-2.214-2.983-3.753-4.523-4.138zM13.209 24.156v0c-0.193 0.144-0.481 0.192-0.818 0.096-1.155-0.241-2.55-1.588-3.561-3.417-1.492-2.695-1.636-5.389-0.722-6.015 0.144-0.096 0.289-0.144 0.481-0.144 0.096 0 0.193 0 0.337 0.048 1.155 0.241 2.55 1.588 3.561 3.417 1.54 2.647 1.636 5.341 0.722 6.015zM24.71 13.618c-0.529-0.385-1.251-0.481-1.973-0.337-1.54 0.337-3.272 1.925-4.475 4.090-1.877 3.32-1.973 6.737-0.289 7.94 0.385 0.289 0.818 0.385 1.347 0.385 0.192 0 0.433-0.048 0.674-0.096 1.54-0.337 3.272-1.925 4.475-4.090 1.829-3.272 1.973-6.689 0.241-7.892zM23.17 20.836c-1.011 1.829-2.406 3.128-3.561 3.417-0.337 0.096-0.626 0.048-0.818-0.096v0c-0.914-0.626-0.818-3.368 0.722-6.015 1.011-1.829 2.406-3.128 3.561-3.417 0.096-0.048 0.241-0.048 0.337-0.048 0.192 0 0.337 0.048 0.481 0.144 0.914 0.626 0.77 3.32-0.722 6.015zM16 0c-7.122 0-12.944 5.823-12.944 12.944 0 11.164 9.817 19.056 12.944 19.056s12.944-7.94 12.944-19.056c0-7.122-5.823-12.944-12.944-12.944zM16 30.605c-2.214 0-11.501-7.026-11.501-17.612 0-6.352 5.149-11.501 11.501-11.501s11.501 5.149 11.501 11.501c0 10.538-9.287 17.612-11.501 17.612zM19.080 4.379c0.096-0.385 0.481-0.626 0.866-0.481 2.743 0.77 4.908 2.887 5.63 5.63 0.096 0.385-0.096 0.77-0.481 0.866-0.048 0-0.144 0.048-0.192 0.048-0.337 0-0.626-0.193-0.674-0.529-0.626-2.262-2.406-3.994-4.62-4.62-0.433-0.144-0.626-0.529-0.529-0.914z"></path>
</svg>
